<?xml version="1.0" encoding="utf-8"?>
<!-- Generator: Adobe Illustrator 27.1.1, SVG Export Plug-In . SVG Version: 6.00 Build 0)  -->
<svg version="1.1" id="Layer_1" xmlns="http://www.w3.org/2000/svg" xmlns:xlink="http://www.w3.org/1999/xlink" x="0px" y="0px"
	 viewBox="0 0 100 100" style="enable-background:new 0 0 100 100;" xml:space="preserve">
<style type="text/css">
	.st0{fill:#FFD540;}
</style>
<g>
	<path class="st0" d="M99,57.53c-0.95,6.95-2.9,13.55-6.48,19.59c-6.1,10.29-14.51,17.77-25.71,21.82
		c-3.48,1.26-4.87,0.23-4.89-3.59c-0.03-4.43-0.02-8.87-0.03-13.3c-0.01-2.43-0.56-4.72-2.02-6.66c-1.07-1.42-0.66-1.86,0.89-2
		c2.4-0.21,4.71-0.85,6.96-1.69c6.66-2.46,10.9-7.13,12.4-14.23c1.34-6.35,1.79-12.72-1.92-18.42c-1.48-2.28-2.04-4.22-1.31-6.89
		c0.75-2.76-0.13-5.56-0.97-8.25c-0.46-1.47-1.56-1.33-2.67-1.09c-3.31,0.72-6.31,2.22-9.13,4.05c-1.26,0.81-2.42,1.01-3.88,0.67
		c-6.89-1.63-13.8-1.59-20.69,0.04c-1.32,0.31-2.36,0.14-3.47-0.6c-2.88-1.91-6.02-3.24-9.34-4.14c-1.55-0.42-2.45,0.05-2.93,1.68
		c-0.95,3.26-1.29,6.53-0.31,9.82c0.36,1.21,0.08,2.07-0.63,3.04c-9.2,12.54-2.57,31.52,12.29,35.23c1.47,0.37,2.99,0.58,4.48,0.86
		c1.02,0.19,1.44,0.6,0.69,1.63c-0.51,0.7-0.88,1.52-1.31,2.29c-0.74,1.34-0.33,3.35-2.35,3.94c-2.7,0.79-5.39,1.23-8.09,0.11
		c-2.25-0.94-3.76-2.71-4.98-4.78c-1.54-2.59-3.71-4.3-6.63-4.99c-0.88-0.21-1.95-0.41-2.38,0.45c-0.43,0.86,0.57,1.45,1.2,1.85
		c2.69,1.76,4.42,4.28,5.52,7.23c1.56,4.19,4.68,6.05,8.84,6.37c1.87,0.15,3.78,0.18,5.65,0c1.67-0.16,2.43,0.22,2.33,2.08
		c-0.12,2.06,0.02,4.14-0.01,6.21c-0.05,3.19-1.54,4.29-4.51,3.24C24.8,96,17.52,90.71,11.7,83.3C5.95,75.97,2.3,67.75,1.23,58.38
		C1.2,58.09,1.08,57.81,1,57.53C1,53.69,1,49.84,1,46c0.08-0.28,0.21-0.56,0.24-0.85C4.1,20.78,26.18-0.19,53.47,1.94
		c16.37,1.28,28.96,9.17,38.02,22.99C95.68,31.31,97.89,38.46,99,46C99,49.84,99,53.69,99,57.53z"/>
</g>
</svg>
