<?xml version="1.0" encoding="utf-8"?>
<!-- Generator: Adobe Illustrator 27.1.1, SVG Export Plug-In . SVG Version: 6.00 Build 0)  -->
<svg version="1.1" id="Layer_1" xmlns="http://www.w3.org/2000/svg" xmlns:xlink="http://www.w3.org/1999/xlink" x="0px" y="0px"
	 viewBox="0 0 100 100" style="enable-background:new 0 0 100 100;" xml:space="preserve">
<style type="text/css">
	.st0{fill:#FFD540;}
</style>
<path class="st0" d="M33.45,79.29c0,0.4-0.46,0.73-1.05,0.73c-0.67,0.06-1.13-0.26-1.13-0.73c0-0.4,0.46-0.73,1.05-0.73
	C32.92,78.5,33.45,78.82,33.45,79.29z M27.18,78.38c-0.14,0.4,0.26,0.87,0.87,0.99c0.52,0.2,1.13,0,1.25-0.4
	c0.12-0.4-0.26-0.87-0.87-1.05C27.9,77.77,27.32,77.98,27.18,78.38L27.18,78.38z M36.09,78.04c-0.58,0.14-0.99,0.52-0.93,0.99
	c0.06,0.4,0.58,0.67,1.19,0.52c0.58-0.14,0.99-0.52,0.93-0.93C37.22,78.24,36.67,77.98,36.09,78.04z M49.35,0.78
	C21.39,0.78,0,22.01,0,49.97C0,72.33,14.07,91.46,34.17,98.2c2.58,0.46,3.49-1.13,3.49-2.44c0-1.25-0.06-8.15-0.06-12.38
	c0,0-14.11,3.02-17.08-6.01c0,0-2.3-5.87-5.6-7.38c0,0-4.62-3.17,0.32-3.1c0,0,5.02,0.4,7.78,5.2c4.42,7.78,11.81,5.54,14.7,4.21
	c0.46-3.23,1.77-5.46,3.23-6.79c-11.27-1.25-22.64-2.88-22.64-22.28c0-5.54,1.53-8.33,4.76-11.88c-0.52-1.31-2.24-6.71,0.52-13.69
	c4.21-1.31,13.91,5.44,13.91,5.44c4.03-1.13,8.37-1.71,12.66-1.71s8.63,0.58,12.66,1.71c0,0,9.7-6.77,13.91-5.44
	c2.76,7,1.05,12.38,0.52,13.69c3.23,3.57,5.2,6.35,5.2,11.88c0,19.46-11.88,21.01-23.15,22.28c1.85,1.59,3.43,4.62,3.43,9.35
	c0,6.79-0.06,15.2-0.06,16.85c0,1.31,0.93,2.9,3.49,2.44C86.33,91.46,100,72.33,100,49.97C100,22.01,77.32,0.78,49.35,0.78z
	 M19.6,70.31c-0.26,0.2-0.2,0.67,0.14,1.05c0.32,0.32,0.79,0.46,1.05,0.2c0.26-0.2,0.2-0.67-0.14-1.05
	C20.32,70.19,19.86,70.05,19.6,70.31z M17.42,68.68c-0.14,0.26,0.06,0.58,0.46,0.79c0.32,0.2,0.73,0.14,0.87-0.14
	c0.14-0.26-0.06-0.58-0.46-0.79C17.88,68.42,17.56,68.48,17.42,68.68z M23.95,75.86c-0.32,0.26-0.2,0.87,0.26,1.25
	c0.46,0.46,1.05,0.52,1.31,0.2c0.26-0.26,0.14-0.87-0.26-1.25C24.82,75.6,24.21,75.54,23.95,75.86z M21.65,72.89
	c-0.32,0.2-0.32,0.73,0,1.19s0.87,0.67,1.13,0.46c0.32-0.26,0.32-0.79,0-1.25C22.5,72.83,21.98,72.63,21.65,72.89L21.65,72.89z"/>
</svg>
