<?xml version="1.0" encoding="utf-8"?>
<!-- Generator: Adobe Illustrator 27.1.1, SVG Export Plug-In . SVG Version: 6.00 Build 0)  -->
<svg version="1.1" id="Layer_1" xmlns="http://www.w3.org/2000/svg" xmlns:xlink="http://www.w3.org/1999/xlink" x="0px" y="0px"
	 viewBox="0 0 100 100" style="enable-background:new 0 0 100 100;" xml:space="preserve">
<style type="text/css">
	.st0{fill:#FFD540;}
</style>
<path class="st0" d="M92.66,0.23H7.32c-3.91,0-7.09,3.22-7.09,7.18v85.19c0,3.95,3.18,7.18,7.09,7.18h85.34
	c3.91,0,7.11-3.22,7.11-7.18V7.41C99.77,3.45,96.57,0.23,92.66,0.23z M30.31,85.55H15.56v-47.5h14.78v47.5H30.31z M22.94,31.56
	c-4.73,0-8.55-3.84-8.55-8.55s3.82-8.55,8.55-8.55c4.71,0,8.55,3.84,8.55,8.55C31.49,27.74,27.67,31.56,22.94,31.56z M85.62,85.55
	H70.86V62.44c0-5.51-0.11-12.6-7.67-12.6c-7.69,0-8.87,6-8.87,12.2v23.51H39.58v-47.5h14.15v6.49h0.2c1.98-3.73,6.8-7.67,13.98-7.67
	c14.93,0,17.71,9.84,17.71,22.64V85.55z"/>
</svg>
