<?xml version="1.0" encoding="utf-8"?>
<!-- Generator: Adobe Illustrator 27.1.1, SVG Export Plug-In . SVG Version: 6.00 Build 0)  -->
<svg version="1.1" id="Layer_1" xmlns="http://www.w3.org/2000/svg" xmlns:xlink="http://www.w3.org/1999/xlink" x="0px" y="0px"
	 viewBox="0 0 100 100" style="enable-background:new 0 0 100 100;" xml:space="preserve">
<style type="text/css">
	.st0{fill:#FFD540;}
</style>
<path class="st0" d="M49.78,0.05C22.17,0.05-0.2,22.42-0.2,50.03S22.17,100,49.78,100s49.97-22.37,49.97-49.97
	S77.38,0.05,49.78,0.05z M72.95,34.05c-0.75,7.9-4.01,27.08-5.66,35.93c-0.71,3.75-2.08,5-3.41,5.12c-2.9,0.26-5.1-1.91-7.92-3.77
	c-4.39-2.88-6.89-4.68-11.14-7.5c-4.94-3.24-1.73-5.04,1.07-7.96c0.75-0.77,13.52-12.39,13.76-13.44c0.04-0.14,0.06-0.62-0.24-0.89
	s-0.73-0.16-1.03-0.1c-0.44,0.09-7.47,4.74-21.08,13.92c-1.99,1.37-3.8,2.04-5.42,1.99c-1.79-0.04-5.22-1.01-7.78-1.83
	c-3.12-1.01-5.62-1.55-5.4-3.28c0.11-0.9,1.35-1.82,3.73-2.76c14.56-6.34,24.28-10.53,29.14-12.55c13.88-5.76,16.77-6.77,18.64-6.81
	c0.42,0,1.33,0.1,1.93,0.58c0.39,0.35,0.65,0.83,0.71,1.35C72.96,32.71,72.99,33.38,72.95,34.05z"/>
</svg>
