<?xml version="1.0" encoding="utf-8"?>
<!-- Generator: Adobe Illustrator 27.1.1, SVG Export Plug-In . SVG Version: 6.00 Build 0)  -->
<svg version="1.1" id="Layer_1" xmlns="http://www.w3.org/2000/svg" xmlns:xlink="http://www.w3.org/1999/xlink" x="0px" y="0px"
	 viewBox="0 0 100 100" style="enable-background:new 0 0 100 100;" xml:space="preserve">
<style type="text/css">
	.st0{fill:#FFD540;}
</style>
<g>
	<path class="st0" d="M49.52,1.06C23.23,1.03,1.51,23.34,1.57,50.24c0.06,27.11,21.79,49.12,48.42,49.07
		C76.62,99.26,98.28,77.08,98,49.68C97.73,22.5,76.27,1.09,49.52,1.06z M72.53,49.65c-1.22,7.3-2.48,14.6-3.74,21.89
		c-0.16,0.94-0.38,1.88-0.68,2.78c-1.01,3-3.07,3.92-5.96,2.72c-1.21-0.5-2.22-1.33-3.29-2.07c-4.72-3.24-9.43-6.48-14.15-9.73
		c-0.54-0.37-1.06-0.75-1.54-1.19c-1.7-1.6-1.78-2.61-0.35-4.46c2.01-2.59,4.63-4.56,6.92-6.87c3.2-3.24,6.51-6.38,9.76-9.57
		c0.29-0.29,0.54-0.63,0.79-0.96c0.3-0.41,0.43-0.87,0.07-1.31c-0.36-0.43-0.85-0.42-1.29-0.21c-0.53,0.25-1.04,0.55-1.53,0.88
		c-6.84,4.64-13.74,9.18-20.47,13.97c-3.48,2.47-6.98,3.12-10.97,1.76c-2.56-0.87-5.21-1.45-7.71-2.5
		c-0.87-0.36-1.82-0.74-1.92-1.88c-0.11-1.15,0.77-1.69,1.57-2.18c2.73-1.67,5.75-2.7,8.66-3.97c12.88-5.64,25.66-11.52,38.74-16.68
		c1.48-0.58,2.97-1.14,4.5-1.54c3.66-0.98,4.92,0.07,4.86,4.53C74.26,38.2,73.48,43.94,72.53,49.65z"/>
</g>
</svg>
