<?xml version="1.0" encoding="utf-8"?>
<!-- Generator: Adobe Illustrator 27.1.1, SVG Export Plug-In . SVG Version: 6.00 Build 0)  -->
<svg version="1.1" id="Layer_1" xmlns="http://www.w3.org/2000/svg" xmlns:xlink="http://www.w3.org/1999/xlink" x="0px" y="0px"
	 viewBox="0 0 1080 1080" style="enable-background:new 0 0 1080 1080;" xml:space="preserve">
<style type="text/css">
	.st0{fill:#FFD540;}
</style>
<g>
	<g>
		<path class="st0" d="M600.25,713.29c10.98,0,16.43,7.37,18.26,10.54c1.83,3.17,5.49,11.57,0,21.08L558.52,848.8
			c-5.49,9.51-14.6,10.54-18.26,10.54c-3.65,0-12.75-1.03-18.24-10.52L461.9,744.92c-5.51-9.51-1.84-17.92-0.02-21.09
			c1.83-3.17,7.27-10.55,18.26-10.55H600.25 M600.25,683.42H480.14c-39.24,0-63.75,42.5-44.09,76.46l60.13,103.89
			c9.81,16.95,26.95,25.43,44.09,25.43c17.16,0,34.31-8.49,44.12-25.47l59.99-103.89C663.98,725.88,639.47,683.42,600.25,683.42
			L600.25,683.42z"/>
	</g>
	<path class="st0" d="M999.31,940.05h-62.42c-61.79,0-118.87-32.99-149.71-86.53L556.65,453.39c-7.18-12.46-25.15-12.47-32.34-0.02
		l-231.16,400.3c-30.87,53.45-87.9,86.38-149.63,86.38H80.99c-14.37,0-23.35-15.56-16.17-28l429.7-744.26
		c20.28-35.12,70.98-35.12,91.25,0l429.7,744.26C1022.66,924.5,1013.67,940.05,999.31,940.05z"/>
</g>
</svg>
